<?xml version="1.0" standalone="no"?>
<!DOCTYPE svg PUBLIC "-//W3C//DTD SVG 20010904//EN"
 "http://www.w3.org/TR/2001/REC-SVG-20010904/DTD/svg10.dtd">
<svg version="1.0" xmlns="http://www.w3.org/2000/svg"
 width="371.000000pt" height="422.000000pt" viewBox="0 0 371.000000 422.000000"
 preserveAspectRatio="xMidYMid meet">

<g transform="translate(0.000000,422.000000) scale(0.100000,-0.100000)"
fill="#000000" stroke="none">
<path d="M73 4173 l-73 -4 0 -958 0 -958 50 -5 c28 -3 147 -3 265 0 l215 5 0
478 0 478 22 12 c29 15 202 5 283 -17 111 -30 239 -105 303 -178 45 -51 95
-133 128 -208 l29 -67 308 -1 c169 0 307 -3 307 -8 0 -8 -1020 -1029 -1425
-1425 l-230 -226 29 -58 c33 -68 140 -226 201 -298 240 -281 583 -493 942
-584 282 -71 636 -64 924 19 194 55 319 113 489 225 183 121 355 290 491 485
45 64 169 276 169 289 0 13 -452 471 -465 471 -6 0 -156 -146 -331 -324 -258
-261 -336 -334 -405 -379 -167 -109 -384 -155 -576 -123 -107 18 -186 42 -254
76 -43 22 -130 82 -157 107 -7 7 -18 13 -23 13 -6 0 -9 9 -7 20 4 25 1864
1900 1884 1900 12 0 14 -48 14 -287 0 -159 3 -312 6 -340 l7 -53 258 0 259 0
0 958 0 959 -97 6 c-417 28 -704 -30 -1018 -207 -100 -57 -173 -115 -320 -256
-99 -95 -147 -133 -200 -160 -70 -35 -71 -35 -205 -35 -113 0 -143 3 -180 20
-81 35 -151 85 -244 175 -209 202 -368 303 -606 383 -221 75 -424 96 -767 80z"/>
</g>
</svg>
